<?xml version="1.0" standalone="no"?>
<!DOCTYPE svg PUBLIC "-//W3C//DTD SVG 20010904//EN"
 "http://www.w3.org/TR/2001/REC-SVG-20010904/DTD/svg10.dtd">
<svg version="1.0" xmlns="http://www.w3.org/2000/svg"
 width="700.000000pt" height="700.000000pt" viewBox="0 0 700.000000 700.000000"
 preserveAspectRatio="xMidYMid meet">
<metadata>
Created by potrace 1.14, written by Peter Selinger 2001-2017
</metadata>
<g transform="translate(0.000000,700.000000) scale(0.100000,-0.100000)"
fill="#000000" stroke="none">
<path d="M0 3500 l0 -3500 3500 0 3500 0 0 3500 0 3500 -3500 0 -3500 0 0
-3500z m3726 2605 c513 -90 921 -474 1050 -988 21 -83 27 -135 31 -281 l6
-179 61 -76 c236 -293 376 -694 376 -1081 0 -387 -140 -788 -376 -1081 l-61
-76 -6 -179 c-6 -201 -27 -311 -91 -469 -117 -289 -353 -544 -634 -684 -89
-45 -251 -97 -356 -116 -115 -20 -337 -20 -452 0 -254 45 -491 165 -678 345
-192 184 -307 384 -372 644 -21 82 -27 135 -31 281 l-6 179 -50 61 c-239 286
-387 703 -387 1093 0 393 146 809 387 1097 l50 61 6 179 c6 198 27 308 87 461
116 293 354 551 638 693 85 43 250 97 348 115 108 20 349 20 460 1z"/>
<path d="M3500 3483 c-161 -368 -294 -674 -297 -680 -3 -8 3 -13 13 -13 15 0
75 129 309 665 160 365 291 671 293 680 2 8 -3 15 -11 15 -10 0 -114 -227
-307 -667z"/>
<path d="M2660 3525 c-395 -194 -455 -226 -457 -247 -3 -21 35 -42 448 -243
248 -121 457 -221 465 -223 8 -2 14 3 14 12 0 10 -108 68 -322 173 -178 87
-379 185 -448 219 l-125 62 410 200 c514 252 479 234 483 255 2 9 0 17 -5 16
-4 0 -213 -101 -463 -224z"/>
<path d="M3900 3732 c0 -13 107 -69 441 -232 242 -118 442 -217 444 -220 2 -3
-195 -102 -437 -220 -242 -118 -443 -221 -445 -228 -3 -7 -3 -16 1 -19 3 -4
211 94 461 217 409 201 455 226 455 248 0 21 -46 46 -456 248 -251 123 -458
224 -460 224 -2 0 -4 -8 -4 -18z"/>
</g>
</svg>
